<svg width="354" height="171" viewBox="0 0 354 171" fill="none" xmlns="http://www.w3.org/2000/svg">
<path d="M354 95.1957L177 46.7163V74.0411L354 122.52V95.1957Z" fill="#032363"/>
<path d="M354 48.4794L177 0V27.3247L354 75.8041V48.4794Z" fill="#032363"/>
<path d="M177 143.675L0 95.1958V122.521L177 171V143.675Z" fill="#032363"/>
<path d="M177 96.9589L0 48.4795V75.8042L177 124.284V96.9589Z" fill="#032363"/>
<path d="M0 95.1957L177 46.7163V74.0411L0 122.52V95.1957Z" fill="#144CBC"/>
<path d="M0 48.4794L177 0V27.3247L0 75.8041V48.4794Z" fill="#144CBC"/>
<path d="M177 143.675L354 95.1958V122.521L177 171V143.675Z" fill="#144CBC"/>
<path d="M177 96.9589L354 48.4795V75.8042L177 124.284V96.9589Z" fill="#144CBC"/>
</svg>
