<svg width="740" height="171" viewBox="0 0 740 171" fill="none" xmlns="http://www.w3.org/2000/svg">
<path d="M395.24 45.2503V76.8811H442.912V92.9474H395.24V126.586H450.607V144.494H375V27.343H450.607V45.2503H395.24Z" fill="white"/>
<path d="M499.789 146C490.533 146 482.56 144.159 475.869 140.477C469.29 136.684 464.272 131.83 460.815 125.917C457.469 119.892 455.797 113.644 455.797 107.173V106.169H478.044V107.173C478.044 110.297 478.824 113.477 480.386 116.712C481.947 119.836 484.344 122.514 487.578 124.746C490.924 126.865 495.105 127.925 500.124 127.925C506.145 127.925 511.108 126.363 515.011 123.239C518.914 120.115 520.865 115.931 520.865 110.687C520.865 106.225 519.304 102.654 516.182 99.9765C513.171 97.2988 509.379 95.5136 504.807 94.621L489.586 91.6086C482.337 90.0466 475.367 86.9783 468.677 82.4039C462.097 77.7178 458.808 69.9078 458.808 58.9737C458.808 52.0562 460.48 46.0314 463.826 40.899C467.283 35.7667 471.966 31.8617 477.877 29.184C483.898 26.3947 490.812 25 498.618 25C507.428 25 514.955 26.7294 521.2 30.1881C527.556 33.6468 532.351 38.1097 535.585 43.5768C538.819 49.0438 540.436 54.7898 540.436 60.8147V61.4841H518.189V60.982C518.189 58.3043 517.52 55.515 516.182 52.6141C514.955 49.7132 512.78 47.2586 509.658 45.2503C506.647 43.242 502.688 42.2379 497.782 42.2379C492.095 42.2379 487.578 43.7999 484.233 46.9239C480.887 50.048 479.215 54.0088 479.215 58.8064C479.215 63.1577 480.72 66.6164 483.731 69.1826C486.742 71.7487 490.645 73.5339 495.44 74.538L509.993 77.5505C518.579 79.3356 526.051 82.7386 532.407 87.7593C538.875 92.6685 542.109 100.144 542.109 110.185C542.109 117.214 540.269 123.462 536.589 128.929C533.02 134.285 528.002 138.469 521.534 141.481C515.178 144.494 507.93 146 499.789 146Z" fill="white"/>
<path d="M632.774 45.2503H600.156V144.494H579.917V45.2503H547.299V27.343H632.774V45.2503Z" fill="white"/>
<path d="M676.437 85.9184L638.132 27.343H660.379L688.48 71.6929H689.484L717.586 27.343H740L701.528 85.9184L740 144.494H717.586L689.484 100.144H688.48L660.379 144.494H637.964L676.437 85.9184Z" fill="#B7B7B7"/>
<path d="M354 95.1957L177 46.7163V74.0411L354 122.52V95.1957Z" fill="#B7B7B7"/>
<path d="M354 48.4794L177 0V27.3247L354 75.8041V48.4794Z" fill="#B7B7B7"/>
<path d="M177 143.675L0 95.1958V122.521L177 171V143.675Z" fill="#B7B7B7"/>
<path d="M177 96.9589L0 48.4795V75.8042L177 124.284V96.9589Z" fill="#B7B7B7"/>
<path d="M0 95.1957L177 46.7163V74.0411L0 122.52V95.1957Z" fill="white"/>
<path d="M0 48.4794L177 0V27.3247L0 75.8041V48.4794Z" fill="white"/>
<path d="M177 143.675L354 95.1958V122.521L177 171V143.675Z" fill="white"/>
<path d="M177 96.9589L354 48.4795V75.8042L177 124.284V96.9589Z" fill="white"/>
</svg>
